<?xml version="1.0" standalone="no"?>
<!DOCTYPE svg PUBLIC "-//W3C//DTD SVG 20010904//EN"
 "http://www.w3.org/TR/2001/REC-SVG-20010904/DTD/svg10.dtd">
<svg version="1.0" xmlns="http://www.w3.org/2000/svg"
 width="237.000000pt" height="256.000000pt" viewBox="0 0 237.000000 256.000000"
 preserveAspectRatio="xMidYMid meet">

<g transform="translate(0.000000,256.000000) scale(0.100000,-0.100000)"
fill="#000000" stroke="none">
<path d="M1213 2191 c-122 -31 -178 -167 -121 -293 27 -59 72 -100 153 -141
50 -25 60 -28 195 -67 41 -12 90 -31 109 -42 81 -50 81 -175 -1 -264 -22 -24
-55 -49 -74 -56 -32 -11 -34 -15 -34 -56 l0 -44 33 7 c50 11 133 56 173 94 79
77 104 182 68 292 -30 90 -112 138 -298 174 -194 36 -276 99 -276 212 0 74 63
143 130 143 67 -1 141 -78 112 -118 -30 -42 -28 -66 11 -123 32 -48 63 -50 82
-5 21 49 20 122 -1 134 -9 5 -28 33 -43 63 -14 29 -38 61 -52 72 -29 21 -117
30 -166 18z"/>
<path d="M666 1615 c6 -15 63 -35 100 -35 53 0 126 -35 201 -97 101 -83 217
-140 303 -150 l65 -8 3 -132 3 -133 34 0 35 0 0 140 0 139 38 11 c21 5 55 24
76 42 64 56 79 165 30 219 -16 18 -41 19 -455 19 -383 0 -438 -2 -433 -15z"/>
<path d="M1753 1550 c1 -44 4 -80 7 -80 3 0 21 13 40 29 55 44 112 69 186 81
44 7 76 18 89 30 19 20 18 20 -152 20 l-172 0 2 -80z"/>
<path d="M1253 1270 c-126 -56 -121 -214 10 -286 142 -77 399 27 356 144 -13
35 -67 62 -126 62 l-53 0 0 -34 c0 -29 3 -33 23 -29 12 2 31 -3 42 -11 59 -44
-88 -106 -179 -76 -78 25 -100 88 -46 133 25 22 30 33 30 71 0 25 -3 46 -7 45
-5 0 -27 -9 -50 -19z"/>
<path d="M1290 1135 c-14 -17 -10 -47 8 -53 8 -2 12 8 12 32 0 40 -2 42 -20
21z"/>
<path d="M1210 943 c0 -44 28 -95 65 -119 17 -11 60 -20 119 -25 52 -4 110
-15 130 -23 20 -8 36 -11 36 -6 0 14 -49 37 -120 55 -98 25 -133 45 -153 88
-11 20 -32 44 -48 52 l-29 16 0 -38z"/>
<path d="M1340 905 c0 -14 1 -25 3 -25 1 0 17 -4 35 -9 32 -10 32 -9 32 25 0
32 -2 34 -35 34 -31 0 -35 -3 -35 -25z"/>
<path d="M1340 737 c0 -18 -6 -41 -12 -49 -13 -17 -185 -78 -222 -78 -11 -1
-34 -7 -51 -15 -26 -12 15 -13 320 -13 329 0 347 1 300 15 -196 60 -241 76
-252 90 -7 9 -13 32 -13 50 0 31 -2 33 -35 33 -33 0 -35 -2 -35 -33z"/>
<path d="M655 679 c-22 -5 -81 -29 -130 -53 -98 -48 -229 -153 -299 -242 -31
-38 -20 -30 50 36 112 107 153 139 231 178 111 56 213 57 294 3 20 -14 10 -1
-26 33 -33 30 -64 55 -70 55 -5 -1 -28 -5 -50 -10z"/>
<path d="M1039 250 c23 -30 60 -74 81 -96 36 -38 43 -42 107 -48 99 -9 206 2
281 29 36 13 70 21 75 18 6 -4 7 -1 2 7 -6 10 -4 12 9 7 11 -5 15 -3 10 5 -5
8 -2 9 10 5 10 -4 15 -3 11 3 -6 9 10 14 43 13 6 -1 12 5 12 13 0 8 3 13 8 13
4 -1 16 -1 27 0 19 2 20 2 1 13 -14 8 -24 8 -39 -2 -11 -6 -55 -27 -98 -45
-233 -100 -376 -84 -521 59 l-62 61 43 -55z"/>
<path d="M1933 144 c27 -12 35 -19 26 -25 -9 -5 -5 -10 14 -14 15 -4 25 -11
22 -16 -10 -14 63 -22 150 -14 47 4 87 11 91 16 3 5 -6 9 -20 9 -21 0 -115 18
-291 54 -26 6 -24 4 8 -10z"/>
<path d="M2285 90 c3 -5 12 -10 20 -10 8 0 17 5 20 10 4 6 -5 10 -20 10 -15 0
-24 -4 -20 -10z"/>
</g>
</svg>
